<svg width="256" height="256" viewBox="0 0 256 256" fill="none" xmlns="http://www.w3.org/2000/svg">
<path d="M110.789 24.914C118.463 11.6953 137.537 11.6953 145.211 24.914L253.275 211.065C260.987 224.348 251.413 241 236.065 241H19.9349C4.58732 241 -4.98643 224.348 2.72453 211.065L110.789 24.914Z" fill="#063D91"/>
<path d="M132.974 215.334C124.002 215.334 115.749 213.893 108.217 211.012C100.685 208.021 94.1501 203.866 88.6115 198.547C83.0736 193.118 78.7535 186.802 75.6525 179.6C72.5508 172.398 71 164.476 71 155.834C71 147.191 72.5508 139.269 75.6525 132.067C78.7535 124.865 83.0736 118.605 88.6115 113.286C94.2611 107.857 100.852 103.702 108.384 100.821C115.916 97.8294 124.223 96.334 133.306 96.334C142.499 96.334 150.918 97.8294 158.561 100.821C166.203 103.812 172.683 108.3 178 114.283L167.699 124.588C162.936 119.934 157.73 116.555 152.081 114.45C146.543 112.234 140.506 111.126 133.97 111.126C127.325 111.126 121.121 112.234 115.362 114.45C109.713 116.666 104.784 119.768 100.575 123.757C96.476 127.745 93.264 132.51 90.9381 138.05C88.7225 143.479 87.6151 149.407 87.6151 155.834C87.6151 162.15 88.7225 168.077 90.9381 173.617C93.264 179.046 96.476 183.811 100.575 187.91C104.784 191.9 109.713 195.002 115.362 197.218C121.011 199.434 127.158 200.542 133.804 200.542C140.007 200.542 145.933 199.6 151.582 197.716C157.342 195.722 162.659 192.454 167.533 187.91L177.003 200.542C171.243 205.417 164.487 209.129 156.733 211.677C149.09 214.115 141.171 215.334 132.974 215.334ZM161.053 198.381V155.169H177.003V200.542L161.053 198.381Z" fill="white"/>
</svg>
