<?xml version="1.0" encoding="UTF-8"?> <svg xmlns="http://www.w3.org/2000/svg" width="1024" height="304" viewBox="0 0 1024 304" fill="none"><path d="M932.33 173.701V23.3118H873.513V1.96777H1015.41V23.3118H956.591V173.701H932.33Z" fill="black"></path><path d="M817.496 173.701V1.96777H842.002V173.701H817.496Z" fill="black"></path><path d="M630.88 173.701V1.96777H650.975L764.438 143.034H753.9V1.96777H778.406V173.701H758.311L644.849 32.6345H655.386V173.701H630.88Z" fill="black"></path><path d="M502.51 175.659C489.44 175.659 477.269 173.451 465.996 169.035C454.886 164.619 445.247 158.485 437.079 150.635C428.91 142.62 422.538 133.297 417.964 122.667C413.39 112.036 411.103 100.423 411.103 87.8293C411.103 75.2356 413.39 63.6231 417.964 52.992C422.538 42.3609 428.91 33.12 437.079 25.2693C445.247 17.2551 454.886 11.04 465.996 6.62399C477.105 2.208 489.277 0 502.51 0C515.58 0 527.588 2.208 538.534 6.62399C549.643 10.8764 559.282 17.0097 567.451 25.024C575.783 32.8747 582.154 42.1156 586.566 52.7467C591.139 63.3777 593.427 75.072 593.427 87.8293C593.427 100.587 591.139 112.281 586.566 122.912C582.154 133.543 575.783 142.865 567.451 150.88C559.282 158.731 549.643 164.864 538.534 169.28C527.588 173.532 515.58 175.659 502.51 175.659ZM502.51 153.824C511.985 153.824 520.726 152.188 528.731 148.917C536.9 145.647 543.925 141.067 549.807 135.179C555.851 129.127 560.507 122.095 563.775 114.08C567.206 106.065 568.921 97.3159 568.921 87.8293C568.921 78.3431 567.206 69.5929 563.775 61.5787C560.507 53.5644 555.851 46.6133 549.807 40.7253C543.925 34.6737 536.9 30.0124 528.731 26.7413C520.726 23.4703 511.985 21.8347 502.51 21.8347C492.87 21.8347 483.967 23.4703 475.799 26.7413C467.793 30.0124 460.768 34.6737 454.723 40.7253C448.678 46.6133 443.941 53.5644 440.51 61.5787C437.242 69.5929 435.609 78.3431 435.609 87.8293C435.609 97.3159 437.242 106.065 440.51 114.08C443.941 122.095 448.678 129.127 454.723 135.179C460.768 141.067 467.793 145.647 475.799 148.917C483.967 152.188 492.87 153.824 502.51 153.824Z" fill="black"></path><path d="M195.915 173.701V1.96777H216.01L292.959 131.749H282.176L358.144 1.96777H378.239L378.484 173.701H354.959L354.714 39.0131H360.35L292.713 152.848H281.441L213.314 39.0131H219.441V173.701H195.915Z" fill="black"></path><path d="M91.4073 175.659C78.1741 175.659 66.0028 173.532 54.8934 169.28C43.7841 164.864 34.145 158.731 25.9763 150.88C17.8077 142.865 11.4362 133.543 6.86168 122.912C2.28723 112.281 0 100.587 0 87.8293C0 75.072 2.28723 63.3777 6.86168 52.7467C11.4362 42.1156 17.8077 32.8747 25.9763 25.024C34.3084 17.0097 44.0291 10.8764 55.1385 6.62399C66.2478 2.208 78.5008 0 91.8974 0C105.457 0 117.874 2.208 129.147 6.62399C140.419 11.04 149.977 17.664 157.819 26.496L142.625 41.7067C135.599 34.8373 127.921 29.8489 119.589 26.7413C111.421 23.4703 102.516 21.8347 92.8777 21.8347C83.0753 21.8347 73.9264 23.4703 65.431 26.7413C57.0989 30.0124 49.8288 34.592 43.6207 40.48C37.5758 46.368 32.838 53.4009 29.4072 61.5787C26.1397 69.5929 24.506 78.3431 24.506 87.8293C24.506 97.152 26.1397 105.903 29.4072 114.08C32.838 122.095 37.5758 129.127 43.6207 135.179C49.8288 141.067 57.0989 145.647 65.431 148.917C73.763 152.188 82.8302 153.824 92.6326 153.824C101.781 153.824 110.522 152.433 118.854 149.653C127.35 146.709 135.192 141.884 142.38 135.179L156.348 153.824C147.852 161.02 137.887 166.5 126.451 170.261C115.178 173.86 103.497 175.659 91.4073 175.659ZM132.822 150.635V86.848H156.348V153.824L132.822 150.635Z" fill="#063D91"></path><path d="M7.521 267V218.7H49.128V267H42.366V222.909L44.022 224.703H12.627L14.352 222.909V267H7.521ZM57.0139 266.931L57.4279 261.342C57.7499 261.388 58.0489 261.434 58.3249 261.48C58.6009 261.526 58.8539 261.549 59.0839 261.549C60.5559 261.549 61.7059 261.043 62.5339 260.031C63.4079 259.019 64.0519 257.685 64.4659 256.029C64.8799 254.327 65.1789 252.418 65.3629 250.302C65.5469 248.186 65.6849 246.07 65.7769 243.954L66.3979 230.43H94.4809V267H87.8569V234.294L89.4439 236.226H70.6759L72.1939 234.225L71.7109 244.368C71.5729 247.588 71.3199 250.601 70.9519 253.407C70.5839 256.213 70.0089 258.674 69.2269 260.79C68.4909 262.906 67.4559 264.562 66.1219 265.758C64.8339 266.954 63.1549 267.552 61.0849 267.552C60.4869 267.552 59.8429 267.483 59.1529 267.345C58.5089 267.253 57.7959 267.115 57.0139 266.931ZM129.714 267V259.272L129.369 257.823V244.644C129.369 241.838 128.541 239.676 126.885 238.158C125.275 236.594 122.837 235.812 119.571 235.812C117.409 235.812 115.293 236.18 113.223 236.916C111.153 237.606 109.405 238.549 107.979 239.745L105.219 234.777C107.105 233.259 109.359 232.109 111.981 231.327C114.649 230.499 117.432 230.085 120.33 230.085C125.344 230.085 129.208 231.304 131.922 233.742C134.636 236.18 135.993 239.906 135.993 244.92V267H129.714ZM117.708 267.414C114.994 267.414 112.602 266.954 110.532 266.034C108.508 265.114 106.944 263.849 105.84 262.239C104.736 260.583 104.184 258.72 104.184 256.65C104.184 254.672 104.644 252.878 105.564 251.268C106.53 249.658 108.071 248.37 110.187 247.404C112.349 246.438 115.247 245.955 118.881 245.955H130.473V250.716H119.157C115.845 250.716 113.614 251.268 112.464 252.372C111.314 253.476 110.739 254.81 110.739 256.374C110.739 258.168 111.452 259.617 112.878 260.721C114.304 261.779 116.282 262.308 118.812 262.308C121.296 262.308 123.458 261.756 125.298 260.652C127.184 259.548 128.541 257.938 129.369 255.822L130.68 260.376C129.806 262.538 128.265 264.263 126.057 265.551C123.849 266.793 121.066 267.414 117.708 267.414ZM155.166 267V234.501L156.822 236.226H141.78V230.43H175.176V236.226H160.203L161.79 234.501V267H155.166ZM202.136 267.552C202.09 267.552 201.929 267.552 201.653 267.552C201.423 267.552 201.193 267.552 200.963 267.552C200.733 267.552 200.595 267.552 200.549 267.552C193.051 267.46 187.232 265.804 183.092 262.584C178.952 259.318 176.882 254.672 176.882 248.646C176.882 242.666 178.952 238.089 183.092 234.915C187.278 231.695 193.166 230.062 200.756 230.016C200.848 230.016 200.986 230.016 201.17 230.016C201.4 230.016 201.607 230.016 201.791 230.016C202.021 230.016 202.159 230.016 202.205 230.016C209.887 230.016 215.844 231.626 220.076 234.846C224.354 238.066 226.493 242.666 226.493 248.646C226.493 254.718 224.354 259.387 220.076 262.653C215.798 265.919 209.818 267.552 202.136 267.552ZM201.998 261.756C206 261.756 209.312 261.25 211.934 260.238C214.602 259.226 216.603 257.754 217.937 255.822C219.271 253.89 219.938 251.498 219.938 248.646C219.938 245.84 219.271 243.494 217.937 241.608C216.603 239.722 214.602 238.296 211.934 237.33C209.312 236.364 206 235.881 201.998 235.881C201.906 235.881 201.722 235.881 201.446 235.881C201.17 235.881 201.009 235.881 200.963 235.881C197.053 235.881 193.787 236.387 191.165 237.399C188.589 238.365 186.657 239.791 185.369 241.677C184.081 243.563 183.437 245.886 183.437 248.646C183.437 251.452 184.081 253.821 185.369 255.753C186.703 257.685 188.658 259.157 191.234 260.169C193.856 261.181 197.099 261.71 200.963 261.756C201.055 261.756 201.216 261.756 201.446 261.756C201.722 261.756 201.906 261.756 201.998 261.756ZM198.41 280.386V215.802H204.896V280.386H198.41ZM251.518 267.414C247.838 267.414 244.572 266.609 241.72 264.999C238.868 263.389 236.614 261.181 234.958 258.375C233.302 255.523 232.474 252.303 232.474 248.715C232.474 245.081 233.302 241.861 234.958 239.055C236.614 236.249 238.868 234.064 241.72 232.5C244.572 230.89 247.838 230.085 251.518 230.085C255.152 230.085 258.395 230.89 261.247 232.5C264.145 234.064 266.399 236.249 268.009 239.055C269.665 241.815 270.493 245.035 270.493 248.715C270.493 252.349 269.665 255.569 268.009 258.375C266.399 261.181 264.145 263.389 261.247 264.999C258.395 266.609 255.152 267.414 251.518 267.414ZM251.518 261.618C253.864 261.618 255.957 261.089 257.797 260.031C259.683 258.973 261.155 257.478 262.213 255.546C263.271 253.568 263.8 251.291 263.8 248.715C263.8 246.093 263.271 243.839 262.213 241.953C261.155 240.021 259.683 238.526 257.797 237.468C255.957 236.41 253.864 235.881 251.518 235.881C249.172 235.881 247.079 236.41 245.239 237.468C243.399 238.526 241.927 240.021 240.823 241.953C239.719 243.839 239.167 246.093 239.167 248.715C239.167 251.291 239.719 253.568 240.823 255.546C241.927 257.478 243.399 258.973 245.239 260.031C247.079 261.089 249.172 261.618 251.518 261.618ZM299.448 267.414C296.412 267.414 293.629 266.724 291.099 265.344C288.615 263.918 286.614 261.825 285.096 259.065C283.624 256.305 282.888 252.855 282.888 248.715C282.888 244.575 283.601 241.125 285.027 238.365C286.499 235.605 288.477 233.535 290.961 232.155C293.491 230.775 296.32 230.085 299.448 230.085C303.036 230.085 306.21 230.867 308.97 232.431C311.73 233.995 313.915 236.18 315.525 238.986C317.135 241.746 317.94 244.989 317.94 248.715C317.94 252.441 317.135 255.707 315.525 258.513C313.915 261.319 311.73 263.504 308.97 265.068C306.21 266.632 303.036 267.414 299.448 267.414ZM280.059 280.386V230.43H286.407V240.297L285.993 248.784L286.683 257.271V280.386H280.059ZM298.896 261.618C301.242 261.618 303.335 261.089 305.175 260.031C307.061 258.973 308.533 257.478 309.591 255.546C310.695 253.568 311.247 251.291 311.247 248.715C311.247 246.093 310.695 243.839 309.591 241.953C308.533 240.021 307.061 238.526 305.175 237.468C303.335 236.41 301.242 235.881 298.896 235.881C296.596 235.881 294.503 236.41 292.617 237.468C290.777 238.526 289.305 240.021 288.201 241.953C287.143 243.839 286.614 246.093 286.614 248.715C286.614 251.291 287.143 253.568 288.201 255.546C289.305 257.478 290.777 258.973 292.617 260.031C294.503 261.089 296.596 261.618 298.896 261.618ZM327.563 267V230.43H334.394L350.126 257.478H347.366L363.512 230.43H369.722V267H363.719V237.882L364.823 238.503L350.057 262.86H347.159L332.324 238.02L333.635 237.744V267H327.563ZM405.04 267V259.272L404.695 257.823V244.644C404.695 241.838 403.867 239.676 402.211 238.158C400.601 236.594 398.163 235.812 394.897 235.812C392.735 235.812 390.619 236.18 388.549 236.916C386.479 237.606 384.731 238.549 383.305 239.745L380.545 234.777C382.431 233.259 384.685 232.109 387.307 231.327C389.975 230.499 392.758 230.085 395.656 230.085C400.67 230.085 404.534 231.304 407.248 233.742C409.962 236.18 411.319 239.906 411.319 244.92V267H405.04ZM393.034 267.414C390.32 267.414 387.928 266.954 385.858 266.034C383.834 265.114 382.27 263.849 381.166 262.239C380.062 260.583 379.51 258.72 379.51 256.65C379.51 254.672 379.97 252.878 380.89 251.268C381.856 249.658 383.397 248.37 385.513 247.404C387.675 246.438 390.573 245.955 394.207 245.955H405.799V250.716H394.483C391.171 250.716 388.94 251.268 387.79 252.372C386.64 253.476 386.065 254.81 386.065 256.374C386.065 258.168 386.778 259.617 388.204 260.721C389.63 261.779 391.608 262.308 394.138 262.308C396.622 262.308 398.784 261.756 400.624 260.652C402.51 259.548 403.867 257.938 404.695 255.822L406.006 260.376C405.132 262.538 403.591 264.263 401.383 265.551C399.175 266.793 396.392 267.414 393.034 267.414ZM441.777 267V230.43H448.401V245.955H469.239V230.43H475.863V267H469.239V251.682H448.401V267H441.777ZM511.168 267V259.272L510.823 257.823V244.644C510.823 241.838 509.995 239.676 508.339 238.158C506.729 236.594 504.291 235.812 501.025 235.812C498.863 235.812 496.747 236.18 494.677 236.916C492.607 237.606 490.859 238.549 489.433 239.745L486.673 234.777C488.559 233.259 490.813 232.109 493.435 231.327C496.103 230.499 498.886 230.085 501.784 230.085C506.798 230.085 510.662 231.304 513.376 233.742C516.09 236.18 517.447 239.906 517.447 244.92V267H511.168ZM499.162 267.414C496.448 267.414 494.056 266.954 491.986 266.034C489.962 265.114 488.398 263.849 487.294 262.239C486.19 260.583 485.638 258.72 485.638 256.65C485.638 254.672 486.098 252.878 487.018 251.268C487.984 249.658 489.525 248.37 491.641 247.404C493.803 246.438 496.701 245.955 500.335 245.955H511.927V250.716H500.611C497.299 250.716 495.068 251.268 493.918 252.372C492.768 253.476 492.193 254.81 492.193 256.374C492.193 258.168 492.906 259.617 494.332 260.721C495.758 261.779 497.736 262.308 500.266 262.308C502.75 262.308 504.912 261.756 506.752 260.652C508.638 259.548 509.995 257.938 510.823 255.822L512.134 260.376C511.26 262.538 509.719 264.263 507.511 265.551C505.303 266.793 502.52 267.414 499.162 267.414ZM546.28 267.552C543.244 267.552 540.553 267.069 538.207 266.103C535.907 265.137 533.929 263.711 532.273 261.825C530.617 259.893 529.352 257.478 528.478 254.58C527.65 251.636 527.236 248.186 527.236 244.23C527.236 241.102 527.512 238.296 528.064 235.812C528.616 233.328 529.398 231.12 530.41 229.188C531.468 227.256 532.756 225.577 534.274 224.151C535.838 222.725 537.586 221.552 539.518 220.632C541.496 219.666 543.658 218.93 546.004 218.424L562.702 214.698L563.668 220.839L548.281 224.151C547.361 224.335 546.257 224.611 544.969 224.979C543.681 225.347 542.37 225.922 541.036 226.704C539.702 227.44 538.46 228.475 537.31 229.809C536.16 231.143 535.24 232.891 534.55 235.053C533.86 237.169 533.515 239.791 533.515 242.919C533.515 243.793 533.538 244.46 533.584 244.92C533.63 245.38 533.676 245.84 533.722 246.3C533.814 246.76 533.883 247.45 533.929 248.37L531.169 245.541C531.905 243.011 533.078 240.803 534.688 238.917C536.298 237.031 538.23 235.582 540.484 234.57C542.784 233.512 545.291 232.983 548.005 232.983C551.409 232.983 554.422 233.719 557.044 235.191C559.712 236.663 561.805 238.687 563.323 241.263C564.841 243.839 565.6 246.783 565.6 250.095C565.6 253.453 564.795 256.466 563.185 259.134C561.621 261.756 559.39 263.826 556.492 265.344C553.594 266.816 550.19 267.552 546.28 267.552ZM546.901 262.032C549.247 262.032 551.317 261.526 553.111 260.514C554.905 259.456 556.308 258.053 557.32 256.305C558.332 254.511 558.838 252.51 558.838 250.302C558.838 248.094 558.332 246.139 557.32 244.437C556.308 242.735 554.905 241.401 553.111 240.435C551.317 239.423 549.201 238.917 546.763 238.917C544.463 238.917 542.393 239.4 540.553 240.366C538.713 241.286 537.287 242.597 536.275 244.299C535.263 245.955 534.757 247.887 534.757 250.095C534.757 252.303 535.263 254.327 536.275 256.167C537.333 257.961 538.759 259.387 540.553 260.445C542.393 261.503 544.509 262.032 546.901 262.032ZM568.719 266.931L569.133 261.342C569.455 261.388 569.754 261.434 570.03 261.48C570.306 261.526 570.559 261.549 570.789 261.549C572.261 261.549 573.411 261.043 574.239 260.031C575.113 259.019 575.757 257.685 576.171 256.029C576.585 254.327 576.884 252.418 577.068 250.302C577.252 248.186 577.39 246.07 577.482 243.954L578.103 230.43H606.186V267H599.562V234.294L601.149 236.226H582.381L583.899 234.225L583.416 244.368C583.278 247.588 583.025 250.601 582.657 253.407C582.289 256.213 581.714 258.674 580.932 260.79C580.196 262.906 579.161 264.562 577.827 265.758C576.539 266.954 574.86 267.552 572.79 267.552C572.192 267.552 571.548 267.483 570.858 267.345C570.214 267.253 569.501 267.115 568.719 266.931ZM618.994 267V230.43H625.618V245.403H636.658V251.544H625.618V267H618.994ZM651.355 267.414C647.767 267.414 644.57 266.609 641.764 264.999C639.004 263.389 636.819 261.181 635.209 258.375C633.599 255.523 632.794 252.303 632.794 248.715C632.794 245.081 633.599 241.861 635.209 239.055C636.819 236.203 639.004 233.995 641.764 232.431C644.57 230.867 647.767 230.085 651.355 230.085C654.897 230.085 658.071 230.867 660.877 232.431C663.683 233.995 665.891 236.203 667.501 239.055C669.111 241.861 669.916 245.081 669.916 248.715C669.916 252.349 669.111 255.569 667.501 258.375C665.891 261.181 663.683 263.389 660.877 264.999C658.071 266.609 654.897 267.414 651.355 267.414ZM651.355 261.618C653.655 261.618 655.702 261.089 657.496 260.031C659.29 258.927 660.716 257.432 661.774 255.546C662.832 253.614 663.361 251.337 663.361 248.715C663.361 246.093 662.832 243.839 661.774 241.953C660.716 240.021 659.29 238.526 657.496 237.468C655.702 236.41 653.655 235.881 651.355 235.881C649.101 235.881 647.054 236.41 645.214 237.468C643.42 238.526 641.994 240.021 640.936 241.953C639.878 243.839 639.349 246.093 639.349 248.715C639.349 251.337 639.878 253.614 640.936 255.546C641.994 257.432 643.42 258.927 645.214 260.031C647.054 261.089 649.101 261.618 651.355 261.618ZM704.145 263.895V236.226H688.275L687.93 243.264C687.838 245.564 687.677 247.795 687.447 249.957C687.263 252.073 686.941 254.028 686.481 255.822C686.067 257.616 685.446 259.088 684.618 260.238C683.79 261.388 682.686 262.101 681.306 262.377L674.751 261.204C676.177 261.25 677.327 260.79 678.201 259.824C679.075 258.812 679.742 257.432 680.202 255.684C680.708 253.936 681.076 251.958 681.306 249.75C681.536 247.496 681.72 245.173 681.858 242.781L682.41 230.43H710.769V263.895H704.145ZM673.302 275.487V261.204H716.358V275.487H710.148V267H679.581V275.487H673.302ZM747.412 267V259.272L747.067 257.823V244.644C747.067 241.838 746.239 239.676 744.583 238.158C742.973 236.594 740.535 235.812 737.269 235.812C735.107 235.812 732.991 236.18 730.921 236.916C728.851 237.606 727.103 238.549 725.677 239.745L722.917 234.777C724.803 233.259 727.057 232.109 729.679 231.327C732.347 230.499 735.13 230.085 738.028 230.085C743.042 230.085 746.906 231.304 749.62 233.742C752.334 236.18 753.691 239.906 753.691 244.92V267H747.412ZM735.406 267.414C732.692 267.414 730.3 266.954 728.23 266.034C726.206 265.114 724.642 263.849 723.538 262.239C722.434 260.583 721.882 258.72 721.882 256.65C721.882 254.672 722.342 252.878 723.262 251.268C724.228 249.658 725.769 248.37 727.885 247.404C730.047 246.438 732.945 245.955 736.579 245.955H748.171V250.716H736.855C733.543 250.716 731.312 251.268 730.162 252.372C729.012 253.476 728.437 254.81 728.437 256.374C728.437 258.168 729.15 259.617 730.576 260.721C732.002 261.779 733.98 262.308 736.51 262.308C738.994 262.308 741.156 261.756 742.996 260.652C744.882 259.548 746.239 257.938 747.067 255.822L748.378 260.376C747.504 262.538 745.963 264.263 743.755 265.551C741.547 266.793 738.764 267.414 735.406 267.414ZM781.903 267.414C777.993 267.414 774.543 266.609 771.553 264.999C768.609 263.389 766.309 261.181 764.653 258.375C763.043 255.569 762.238 252.349 762.238 248.715C762.238 245.081 763.02 241.861 764.584 239.055C766.194 236.249 768.379 234.064 771.139 232.5C773.945 230.89 777.096 230.085 780.592 230.085C784.134 230.085 787.262 230.867 789.976 232.431C792.69 233.995 794.806 236.203 796.324 239.055C797.888 241.861 798.67 245.15 798.67 248.922C798.67 249.198 798.647 249.52 798.601 249.888C798.601 250.256 798.578 250.601 798.532 250.923H767.413V246.162H795.082L792.391 247.818C792.437 245.472 791.954 243.379 790.942 241.539C789.93 239.699 788.527 238.273 786.733 237.261C784.985 236.203 782.938 235.674 780.592 235.674C778.292 235.674 776.245 236.203 774.451 237.261C772.657 238.273 771.254 239.722 770.242 241.608C769.23 243.448 768.724 245.564 768.724 247.956V249.06C768.724 251.498 769.276 253.683 770.38 255.615C771.53 257.501 773.117 258.973 775.141 260.031C777.165 261.089 779.488 261.618 782.11 261.618C784.272 261.618 786.227 261.25 787.975 260.514C789.769 259.778 791.333 258.674 792.667 257.202L796.324 261.48C794.668 263.412 792.598 264.884 790.114 265.896C787.676 266.908 784.939 267.414 781.903 267.414ZM808.946 267V230.43H815.777L831.509 257.478H828.749L844.895 230.43H851.105V267H845.102V237.882L846.206 238.503L831.44 262.86H828.542L813.707 238.02L815.018 237.744V267H808.946ZM879.661 267.414C875.981 267.414 872.715 266.609 869.863 264.999C867.011 263.389 864.757 261.181 863.101 258.375C861.445 255.523 860.617 252.303 860.617 248.715C860.617 245.081 861.445 241.861 863.101 239.055C864.757 236.249 867.011 234.064 869.863 232.5C872.715 230.89 875.981 230.085 879.661 230.085C883.295 230.085 886.538 230.89 889.39 232.5C892.288 234.064 894.542 236.249 896.152 239.055C897.808 241.815 898.636 245.035 898.636 248.715C898.636 252.349 897.808 255.569 896.152 258.375C894.542 261.181 892.288 263.389 889.39 264.999C886.538 266.609 883.295 267.414 879.661 267.414ZM879.661 261.618C882.007 261.618 884.1 261.089 885.94 260.031C887.826 258.973 889.298 257.478 890.356 255.546C891.414 253.568 891.943 251.291 891.943 248.715C891.943 246.093 891.414 243.839 890.356 241.953C889.298 240.021 887.826 238.526 885.94 237.468C884.1 236.41 882.007 235.881 879.661 235.881C877.315 235.881 875.222 236.41 873.382 237.468C871.542 238.526 870.07 240.021 868.966 241.953C867.862 243.839 867.31 246.093 867.31 248.715C867.31 251.291 867.862 253.568 868.966 255.546C870.07 257.478 871.542 258.973 873.382 260.031C875.222 261.089 877.315 261.618 879.661 261.618ZM924.14 267.414C920.414 267.414 917.079 266.609 914.135 264.999C911.237 263.389 908.96 261.181 907.304 258.375C905.648 255.569 904.82 252.349 904.82 248.715C904.82 245.081 905.648 241.861 907.304 239.055C908.96 236.249 911.237 234.064 914.135 232.5C917.079 230.89 920.414 230.085 924.14 230.085C927.452 230.085 930.396 230.752 932.972 232.086C935.594 233.374 937.618 235.306 939.044 237.882L934.007 241.125C932.811 239.331 931.339 238.02 929.591 237.192C927.889 236.318 926.049 235.881 924.071 235.881C921.679 235.881 919.54 236.41 917.654 237.468C915.768 238.526 914.273 240.021 913.169 241.953C912.065 243.839 911.513 246.093 911.513 248.715C911.513 251.337 912.065 253.614 913.169 255.546C914.273 257.478 915.768 258.973 917.654 260.031C919.54 261.089 921.679 261.618 924.071 261.618C926.049 261.618 927.889 261.204 929.591 260.376C931.339 259.502 932.811 258.168 934.007 256.374L939.044 259.548C937.618 262.078 935.594 264.033 932.972 265.413C930.396 266.747 927.452 267.414 924.14 267.414ZM954.393 267V234.501L956.049 236.226H941.007V230.43H974.403V236.226H959.43L961.017 234.501V267H954.393ZM981.177 267V230.43H987.801V257.064L1010.23 230.43H1016.23V267H1009.6V240.366L987.249 267H981.177Z" fill="black"></path></svg> 